<?xml version="1.0" encoding="UTF-8" standalone="no"?>
<!DOCTYPE svg PUBLIC "-//W3C//DTD SVG 1.1//EN" "http://www.w3.org/Graphics/SVG/1.1/DTD/svg11.dtd">
<!-- Created with Vectornator (http://vectornator.io/) -->
<svg height="100%" stroke-miterlimit="10" style="fill-rule:nonzero;clip-rule:evenodd;stroke-linecap:round;stroke-linejoin:round;" version="1.1" viewBox="977.245 254.128 631 841" width="100%" xml:space="preserve" xmlns="http://www.w3.org/2000/svg" xmlns:vectornator="http://vectornator.io" xmlns:xlink="http://www.w3.org/1999/xlink">
<defs>
<filter color-interpolation-filters="sRGB" filterUnits="userSpaceOnUse" height="841" id="Filter" width="631" x="977.245" y="254.128">
<feDropShadow dx="-3.67321e-05" dy="10" flood-color="#000000" flood-opacity="1" in="SourceGraphic" result="Shadow" stdDeviation="5"/>
</filter>
</defs>
<g id="Layer-1" vectornator:layerName="Layer 1">
<path d="M1004.25 260.628C999.412 261.961 994.579 263.294 989.745 264.628C993.579 266.294 997.412 267.961 1001.25 269.628C1008.91 272.961 1016.75 278.294 1024.75 285.628C1032.75 292.961 1039.25 300.961 1044.25 309.628C1049.25 318.294 1052.75 325.961 1054.75 332.628C1056.75 339.294 1058.25 346.128 1059.25 353.128C1060.25 360.128 1062.25 438.628 1065.25 588.628C1068.25 738.628 1070.58 822.128 1072.25 839.128C1073.91 856.128 1076.75 871.961 1080.75 886.628C1084.75 901.294 1089.25 913.794 1094.25 924.128C1099.25 934.461 1104.08 943.128 1108.75 950.128C1113.41 957.128 1119.41 964.794 1126.75 973.128C1134.08 981.461 1141.75 988.961 1149.75 995.628C1157.75 1002.29 1168.91 1009.79 1183.25 1018.13C1197.58 1026.46 1210.91 1032.79 1223.25 1037.13C1235.58 1041.46 1246.75 1044.63 1256.75 1046.63C1266.75 1048.63 1273.25 1050.46 1276.25 1052.13C1279.25 1053.79 1283.41 1057.63 1288.75 1063.63C1291.41 1066.63 1294.08 1069.63 1296.75 1072.63C1298.75 1070.13 1300.75 1067.63 1302.75 1065.13C1306.75 1060.13 1310.41 1056.63 1313.75 1054.63C1317.08 1052.63 1324.91 1050.29 1337.25 1047.63C1349.58 1044.96 1361.58 1041.63 1373.25 1037.63C1384.91 1033.63 1393.58 1030.29 1399.25 1027.63C1404.91 1024.96 1413.25 1019.96 1424.25 1012.63C1435.25 1005.29 1443.08 999.628 1447.75 995.628C1452.41 991.628 1459.25 984.294 1468.25 973.628C1477.25 962.961 1484.41 953.294 1489.75 944.628C1495.08 935.961 1499.58 927.294 1503.25 918.628C1506.91 909.961 1510.41 898.794 1513.75 885.128C1517.08 871.461 1519.41 856.628 1520.75 840.628C1522.08 824.628 1523.58 745.461 1525.25 603.128C1526.91 460.794 1528.08 384.961 1528.75 375.628C1529.41 366.294 1531.25 355.628 1534.25 343.628C1537.25 331.628 1540.91 321.461 1545.25 313.128C1549.58 304.794 1555.25 297.128 1562.25 290.128C1569.25 283.128 1574.58 278.628 1578.25 276.628C1581.91 274.628 1585.75 273.128 1589.75 272.128C1591.75 271.628 1593.75 271.128 1595.75 270.628C1590.41 268.628 1585.08 266.628 1579.75 264.628C1569.08 260.628 1562.41 258.294 1559.75 257.628C1557.08 256.961 1553.91 256.794 1550.25 257.128C1546.58 257.461 1528.08 260.961 1494.75 267.628C1461.41 274.294 1441.75 279.461 1435.75 283.128C1429.75 286.794 1424.58 291.294 1420.25 296.628C1415.91 301.961 1411.91 308.961 1408.25 317.628C1404.58 326.294 1401.91 335.294 1400.25 344.628C1398.58 353.961 1397.41 412.294 1396.75 519.628C1396.08 626.961 1395.58 688.961 1395.25 705.628C1394.91 722.294 1394.25 733.961 1393.25 740.628C1392.25 747.294 1389.41 755.628 1384.75 765.628C1380.08 775.628 1373.75 784.794 1365.75 793.128C1357.75 801.461 1351.41 807.128 1346.75 810.128C1342.08 813.128 1336.25 815.961 1329.25 818.628C1322.25 821.294 1313.25 823.294 1302.25 824.628C1291.25 825.961 1281.41 825.961 1272.75 824.628C1264.08 823.294 1254.75 820.294 1244.75 815.628C1234.75 810.961 1226.58 805.294 1220.25 798.628C1213.91 791.961 1208.91 784.294 1205.25 775.628C1201.58 766.961 1199.25 758.794 1198.25 751.128C1197.25 743.461 1196.41 681.794 1195.75 566.128C1195.08 450.461 1194.08 387.294 1192.75 376.628C1191.41 365.961 1189.25 355.794 1186.25 346.128C1183.25 336.461 1180.41 328.961 1177.75 323.628C1175.08 318.294 1171.58 312.628 1167.25 306.628C1162.91 300.628 1158.41 295.461 1153.75 291.128C1149.08 286.794 1143.75 282.961 1137.75 279.628C1131.75 276.294 1114.08 271.628 1084.75 265.628C1055.41 259.628 1037.08 256.628 1029.75 256.628C1022.41 256.628 1013.91 257.961 1004.25 260.628ZM1015.75 264.628C1020.08 264.794 1024.41 264.961 1028.75 265.128C1037.41 265.461 1048.58 267.128 1062.25 270.128C1075.91 273.128 1087.91 275.294 1098.25 276.628C1108.58 277.961 1116.41 279.461 1121.75 281.128C1127.08 282.794 1133.41 286.461 1140.75 292.128C1148.08 297.794 1154.41 305.294 1159.75 314.628C1165.08 323.961 1168.75 332.128 1170.75 339.128C1172.75 346.128 1174.25 353.628 1175.25 361.628C1176.25 369.628 1180.07 395.142 1180.41 412.142C1180.74 429.142 1173.93 442.766 1173.84 444.987C1173.81 442.827 1168.36 421.456 1168.15 417.982C1167.94 414.508 1166.62 402.09 1166.62 400.256C1166.62 396.59 1159.54 341.984 1158.32 340.609C1157.11 339.234 1153.96 329.088 1151.06 323.822C1148.16 318.557 1145.08 311.961 1139.75 306.628C1137.08 303.961 1134.41 301.294 1131.75 298.628C1133.91 302.461 1136.08 306.294 1138.25 310.128C1142.58 317.794 1145.58 323.961 1147.25 328.628C1148.91 333.294 1150.75 341.794 1152.75 354.128C1154.75 366.461 1156.25 422.628 1157.25 522.628C1158.25 622.628 1159.41 683.294 1160.75 704.628C1162.08 725.961 1162.98 761.02 1166.64 772.353C1170.31 783.686 1172.36 792.255 1178.03 801.255C1183.7 810.255 1190.8 819.943 1195.47 824.609C1200.13 829.276 1205.63 833.776 1211.97 838.109C1218.3 842.443 1225.13 846.109 1232.47 849.109C1239.8 852.109 1245.3 853.943 1248.97 854.609C1252.63 855.276 1255.13 855.443 1256.47 855.109C1257.13 854.943 1257.8 854.776 1258.47 854.609C1255.47 853.776 1252.47 852.943 1249.47 852.109C1243.47 850.443 1238.13 848.443 1233.47 846.109C1228.8 843.776 1223.13 840.109 1216.47 835.109C1209.8 830.109 1204.47 825.276 1200.47 820.609C1196.47 815.943 1191.7 808.922 1190.03 805.255C1188.36 801.589 1194.44 794.122 1195.29 794.497C1196.14 794.872 1204.08 798.128 1208.75 803.128C1213.41 808.128 1217.75 812.128 1221.75 815.128C1225.75 818.128 1230.58 820.961 1236.25 823.628C1241.91 826.294 1248.08 828.461 1254.75 830.128C1261.41 831.794 1270.91 832.794 1283.25 833.128C1295.58 833.461 1306.41 832.628 1315.75 830.628C1325.08 828.628 1336.08 824.294 1348.75 817.628C1361.41 810.961 1370.58 804.794 1376.25 799.128C1381.91 793.461 1386.25 788.294 1389.25 783.628C1392.25 778.961 1395.08 773.461 1397.75 767.128C1400.41 760.794 1402.41 753.961 1403.75 746.628C1405.08 739.294 1405.91 728.628 1406.25 714.628C1406.58 700.628 1407.08 636.461 1407.75 522.128C1408.41 407.794 1409.41 346.794 1410.75 339.128C1412.08 331.461 1413.75 324.961 1415.75 319.628C1417.75 314.294 1419.75 309.961 1421.75 306.628C1423.75 303.294 1426.41 299.961 1429.75 296.628C1433.08 293.294 1437.58 290.128 1443.25 287.128C1448.91 284.128 1464.91 280.128 1491.25 275.128C1517.58 270.128 1537.25 267.628 1550.25 267.628C1556.75 267.628 1563.25 267.628 1569.75 267.628C1567.75 268.294 1565.75 268.961 1563.75 269.628C1561.75 270.294 1559.75 270.961 1557.75 271.628C1557.91 271.961 1558.08 272.294 1558.25 272.628C1558.58 273.294 1555.58 276.128 1549.25 281.128C1542.91 286.128 1536.91 292.294 1531.25 299.628C1525.58 306.961 1519.91 316.294 1514.25 327.628C1508.58 338.961 1504.58 349.294 1502.25 358.628C1499.91 367.961 1498.25 378.294 1497.25 389.628C1496.25 400.961 1494.75 463.294 1492.75 576.628C1490.75 689.961 1489.08 752.961 1487.75 765.628C1486.41 778.294 1484.25 789.961 1481.25 800.628C1478.25 811.294 1475.08 820.294 1471.75 827.628C1468.41 834.961 1463.75 843.294 1457.75 852.628C1451.75 861.961 1444.91 870.794 1437.25 879.128C1429.58 887.461 1423.08 893.794 1417.75 898.128C1412.41 902.461 1406.58 906.628 1400.25 910.628C1393.91 914.628 1385.75 918.961 1375.75 923.628C1365.75 928.294 1356.75 931.794 1348.75 934.128C1340.75 936.461 1330.91 938.461 1319.25 940.128C1307.58 941.794 1301.08 942.628 1299.75 942.628C1299.08 942.628 1298.41 942.628 1297.75 942.628C1297.75 939.461 1297.75 936.294 1297.75 933.128C1297.75 926.794 1302.91 923.128 1313.25 922.128C1323.58 921.128 1333.91 919.128 1344.25 916.128C1354.58 913.128 1363.75 909.628 1371.75 905.628C1379.75 901.628 1384.41 899.128 1385.75 898.128C1387.08 897.128 1387.58 896.294 1387.25 895.628C1387.08 895.294 1386.91 894.961 1386.75 894.628C1387.25 894.794 1387.75 894.961 1388.25 895.128C1389.25 895.461 1392.91 893.294 1399.25 888.628C1405.58 883.961 1408.75 880.961 1408.75 879.628C1408.75 878.961 1408.75 878.294 1408.75 877.628C1409.08 877.794 1409.41 877.961 1409.75 878.128C1410.41 878.461 1411.75 877.794 1413.75 876.128C1415.75 874.461 1419.75 870.294 1425.75 863.628C1431.75 856.961 1436.91 850.128 1441.25 843.128C1445.58 836.128 1446.96 831.102 1447.63 828.436C1447.96 827.102 1450.88 820.376 1451.05 820.043C1451.38 819.376 1456.22 807.719 1456.34 807.205C1456.97 804.399 1459.31 796.259 1459.54 795.063C1459.7 794.23 1463.17 782.405 1463.5 781.401C1466.74 771.271 1469.49 732.127 1469.28 727.626C1469.07 723.124 1471.75 629.794 1473.75 536.128C1475.75 442.461 1476.41 394.794 1475.75 393.128C1475.41 392.294 1477.08 388.294 1477.25 386.628C1477.58 383.294 1477.58 379.628 1477.25 375.628C1477.08 373.628 1478.41 371.294 1478.25 369.628C1477.91 366.294 1477.91 364.128 1478.25 363.128C1478.41 362.628 1484.39 355.085 1485.38 353.833C1482.7 354.625 1478.49 360.815 1478.95 359.873C1479.73 358.282 1480.41 355.461 1481.75 353.128C1483.08 350.794 1484.49 348.062 1484.75 347.628C1485.08 346.794 1486.75 341.794 1486.75 340.128C1486.75 338.461 1487.91 335.461 1490.25 331.128C1492.58 326.794 1496.35 322.263 1496.75 321.628C1497.51 320.391 1503.66 311.018 1504.75 309.628C1505.16 309.103 1511.1 303.831 1512.77 302.164C1514.44 300.497 1518.25 296.628 1521.25 294.628C1524.05 292.756 1525.11 290.907 1527.16 289.867C1527.29 289.796 1529.95 288.026 1530.06 287.943C1531.77 286.603 1536.75 283.628 1538.75 281.628C1539.75 280.628 1540.75 279.628 1541.75 278.628C1540.58 278.961 1529.93 284.496 1528.93 285.014C1527.92 285.532 1523.75 287.461 1521.75 289.128C1520.75 289.961 1517.41 292.794 1516.75 292.628C1516.91 293.294 1513.08 296.628 1512.75 296.628C1512.08 296.628 1509.25 299.294 1504.25 304.628C1499.25 309.961 1494.25 316.794 1489.25 325.128C1484.25 333.461 1480.25 342.628 1477.25 352.628C1474.25 362.628 1472.25 374.461 1471.25 388.128C1470.25 401.794 1468.91 463.794 1467.25 574.128C1465.58 684.461 1464.08 744.128 1462.75 753.128C1461.41 762.128 1459.58 770.628 1457.25 778.628C1454.91 786.628 1450.41 796.961 1443.75 809.628C1437.08 822.294 1428.91 833.628 1419.25 843.628C1409.58 853.628 1401.08 861.128 1393.75 866.128C1386.41 871.128 1379.08 875.461 1371.75 879.128C1364.41 882.794 1357.25 885.794 1350.25 888.128C1343.25 890.461 1334.91 892.461 1325.25 894.128C1315.58 895.794 1304.25 896.628 1291.25 896.628C1278.25 896.628 1267.41 895.961 1258.75 894.628C1250.08 893.294 1241.08 891.294 1231.75 888.628C1222.41 885.961 1213.25 882.461 1204.25 878.128C1195.25 873.794 1186.75 868.961 1178.75 863.628C1170.75 858.294 1162.75 851.794 1154.75 844.128C1146.75 836.461 1139.41 827.794 1132.75 818.128C1126.08 808.461 1120.91 799.794 1117.25 792.128C1113.58 784.461 1110.41 776.461 1107.75 768.128C1105.08 759.794 1103.25 752.628 1102.25 746.628C1101.25 740.628 1100.75 732.794 1100.75 723.128C1100.75 713.461 1101.91 702.294 1104.25 689.628C1105.41 683.294 1106.58 676.961 1107.75 670.628C1106.91 672.961 1106.08 675.294 1105.25 677.628C1104.41 679.961 1103.58 682.294 1102.75 684.628C1102.41 683.794 1102.08 682.961 1101.75 682.128C1101.08 680.461 1099.58 628.628 1097.25 526.628C1094.91 424.628 1093.25 369.961 1092.25 362.628C1091.25 355.294 1089.25 346.794 1086.25 337.128C1083.25 327.461 1079.75 318.961 1075.75 311.628C1071.75 304.294 1067.75 298.794 1063.75 295.128C1061.75 293.294 1059.21 291.541 1057.21 289.707C1059.21 292.207 1061.75 294.628 1063.75 297.128C1067.75 302.128 1071.25 307.628 1074.25 313.628C1077.25 319.628 1079.75 325.794 1081.75 332.128C1083.75 338.461 1085.41 345.961 1086.75 354.628C1088.08 363.294 1089.75 428.128 1091.75 549.128C1093.75 670.128 1096.41 739.461 1099.75 757.128C1103.08 774.794 1106.58 787.794 1110.25 796.128C1113.91 804.461 1119.25 813.961 1126.25 824.628C1133.25 835.294 1141.91 845.961 1152.25 856.628C1162.58 867.294 1170.25 874.628 1175.25 878.628C1180.25 882.628 1186.75 887.128 1194.75 892.128C1202.75 897.128 1210.08 901.128 1216.75 904.128C1223.41 907.128 1232.41 910.294 1243.75 913.628C1255.08 916.961 1265.08 919.128 1273.75 920.128C1282.41 921.128 1286.91 922.961 1287.25 925.628C1287.58 928.294 1287.75 931.794 1287.75 936.128C1287.75 938.294 1287.75 940.461 1287.75 942.628C1282.08 941.961 1276.41 941.294 1270.75 940.628C1259.41 939.294 1249.25 937.128 1240.25 934.128C1231.25 931.128 1225.88 930.542 1224.83 930.382C1222.28 929.987 1221.6 928.987 1221.6 928.487C1221.6 927.987 1214.39 928.59 1215.37 923.246C1215.49 922.57 1211.91 922.794 1208.25 921.128C1204.58 919.461 1200.08 915.128 1194.75 912.128C1189.41 909.128 1178.15 901.793 1176.75 900.628C1173.49 897.398 1172.52 895.882 1172.25 895.628C1170.84 894.317 1159.58 886.961 1158.75 886.628C1160.25 888.128 1167.08 895.961 1166.75 896.128C1166.08 896.461 1163.58 894.794 1159.25 891.128C1154.91 887.461 1147.58 879.794 1137.25 868.128C1126.91 856.461 1118.41 844.961 1111.75 833.628C1105.08 822.294 1099.75 810.294 1095.75 797.628C1091.75 784.961 1089.08 771.961 1087.75 758.628C1087.08 751.961 1086.41 745.294 1085.75 738.628C1085.75 744.294 1085.75 749.961 1085.75 755.628C1085.75 766.961 1086.75 776.628 1088.75 784.628C1090.75 792.628 1091.75 798.961 1091.75 803.628C1091.75 805.961 1091.75 808.294 1091.75 810.628C1092.08 810.294 1092.41 809.961 1092.75 809.628C1093.08 809.294 1093.41 808.961 1093.75 808.628C1093.58 809.961 1093.41 811.294 1093.25 812.628C1092.91 815.294 1093.25 818.461 1094.25 822.128C1095.25 825.794 1097.08 830.794 1099.75 837.128C1102.41 843.461 1106.75 851.628 1112.75 861.628C1118.75 871.628 1124.08 879.628 1128.75 885.628C1133.41 891.628 1141.25 899.794 1152.25 910.128C1163.25 920.461 1174.41 929.461 1185.75 937.128C1197.08 944.794 1203.25 948.461 1204.25 948.128C1205.25 947.794 1211.41 949.794 1222.75 954.128C1234.08 958.461 1240.58 960.628 1242.25 960.628C1243.91 960.628 1250.91 963.128 1263.25 968.128C1275.58 973.128 1282.58 978.461 1284.25 984.128C1285.91 989.794 1287.25 998.294 1288.25 1009.63C1288.75 1015.29 1289.25 1020.96 1289.75 1026.63C1290.08 1025.63 1290.41 1024.63 1290.75 1023.63C1291.08 1022.63 1291.41 1021.63 1291.75 1020.63C1291.75 1023.96 1291.75 1027.29 1291.75 1030.63C1291.75 1037.29 1292.41 1042.63 1293.75 1046.63C1294.41 1048.63 1295.08 1050.63 1295.75 1052.63C1294.58 1051.29 1293.41 1049.96 1292.25 1048.63C1289.91 1045.96 1286.75 1043.46 1282.75 1041.13C1278.75 1038.79 1271.08 1036.29 1259.75 1033.63C1248.41 1030.96 1238.08 1027.96 1228.75 1024.63C1219.41 1021.29 1210.08 1017.29 1200.75 1012.63C1191.41 1007.96 1183.08 1003.13 1175.75 998.128C1168.41 993.128 1161.75 988.128 1155.75 983.128C1149.75 978.128 1143.08 971.794 1135.75 964.128C1128.41 956.461 1121.75 948.128 1115.75 939.128C1109.75 930.128 1104.75 921.128 1100.75 912.128C1096.75 903.128 1093.08 892.628 1089.75 880.628C1086.41 868.628 1083.91 856.128 1082.25 843.128C1080.58 830.128 1078.08 743.961 1074.75 584.628C1071.41 425.294 1069.25 343.128 1068.25 338.128C1067.25 333.128 1064.75 325.961 1060.75 316.628C1056.75 307.294 1052.91 299.794 1049.25 294.128C1045.58 288.461 1042.41 284.461 1039.75 282.128C1038.41 280.961 1037.08 279.794 1035.75 278.628C1037.41 279.128 1039.08 279.628 1040.75 280.128C1044.08 281.128 1047.41 282.961 1050.75 285.628C1054.08 288.294 1058.16 290.019 1058.86 290.275C1056.52 288.608 1053.08 285.294 1050.75 283.628C1046.08 280.294 1039.08 276.294 1029.75 271.628C1025.08 269.294 1020.41 266.961 1015.75 264.628ZM1527.75 309.628C1527.91 309.961 1528.08 310.294 1528.25 310.628C1528.58 311.294 1527.75 313.294 1525.75 316.628C1523.75 319.961 1521.75 324.794 1519.75 331.128C1517.75 337.461 1516.08 345.461 1514.75 355.128C1513.41 364.794 1511.75 446.294 1509.75 599.628C1507.75 752.961 1506.08 835.794 1504.75 848.128C1503.41 860.461 1501.41 871.961 1498.75 882.628C1496.08 893.294 1492.41 903.794 1487.75 914.128C1483.08 924.461 1478.41 933.294 1473.75 940.628C1469.08 947.961 1464.58 954.294 1460.25 959.628C1455.91 964.961 1448.91 972.128 1439.25 981.128C1429.58 990.128 1420.91 997.128 1413.25 1002.13C1405.58 1007.13 1396.75 1011.96 1386.75 1016.63C1376.75 1021.29 1362.58 1025.96 1344.25 1030.63C1325.91 1035.29 1315.08 1038.46 1311.75 1040.13C1308.41 1041.79 1305.25 1044.29 1302.25 1047.63C1300.75 1049.29 1299.25 1050.96 1297.75 1052.63C1299.75 1048.13 1301.75 1043.63 1303.75 1039.13C1307.75 1030.13 1311.41 1023.13 1314.75 1018.13C1316.41 1015.63 1318.08 1013.13 1319.75 1010.63C1317.91 1012.79 1316.08 1014.96 1314.25 1017.13C1310.58 1021.46 1307.58 1026.29 1305.25 1031.63C1304.08 1034.29 1302.91 1036.96 1301.75 1039.63C1301.25 1039.13 1300.75 1038.63 1300.25 1038.13C1299.25 1037.13 1298.58 1021.79 1298.25 992.128C1297.91 962.461 1303.41 947.128 1314.75 946.128C1326.08 945.128 1337.58 942.961 1349.25 939.628C1360.91 936.294 1371.08 932.628 1379.75 928.628C1388.41 924.628 1396.41 920.294 1403.75 915.628C1411.08 910.961 1418.25 905.628 1425.25 899.628C1432.25 893.628 1439.25 886.461 1446.25 878.128C1453.25 869.794 1460.08 859.794 1466.75 848.128C1473.41 836.461 1478.08 826.961 1480.75 819.628C1483.41 812.294 1485.75 804.461 1487.75 796.128C1489.75 787.794 1490.75 782.128 1490.75 779.128C1490.75 776.128 1493.08 765.961 1493.75 752.628C1494.41 739.294 1495.58 675.461 1497.25 561.128C1498.91 446.794 1500.25 386.128 1501.25 379.128C1502.25 372.128 1503.75 365.294 1505.75 358.628C1507.75 351.961 1511.91 342.128 1518.25 329.128C1521.41 322.628 1524.58 316.128 1527.75 309.628ZM1291.75 1030.63C1291.91 1030.96 1292.08 1031.29 1292.25 1031.63C1292.41 1031.96 1292.58 1032.29 1292.75 1032.63C1292.58 1032.29 1292.41 1031.96 1292.25 1031.63C1292.08 1031.29 1291.91 1030.96 1291.75 1030.63Z" fill="#2f6ba5" fill-rule="nonzero" filter="url(#Filter)" stroke="none" vectornator:layerName="Curve 1" vectornator:shadowAngle="1.5708" vectornator:shadowColor="#000000" vectornator:shadowOffset="10" vectornator:shadowOpacity="1" vectornator:shadowRadius="10"/>
</g>
</svg>
